# xmcd
#
# Track frame offsets:
#	150
#	15993
#	33472
#	53080
#	70533
#	87832
#	108990
#	127579
#	142270
#	156457
#	171610
#	185845
#	199431
#	219477
#	234737
#	252997
#
# Disc length: 3579 seconds
#
# Revision: 0
# Processed by: cddbd v1.5.2PL0 Copyright (c) Steve Scherf et al.
# Submitted via: dBpowerAMP V4.0
#
DISCID=e90df910
DTITLE=Schürzenjäger - Danke für die Wahnsinnszeit
DYEAR=2007
DGENRE=Pop
TTITLE0=I hab di, du hast mi
TTITLE1=Treff' ma uns in der Mitt'n (2007)
TTITLE2=Glory Hallelujah (2007)
TTITLE3=Tu's jetzt (2007)
TTITLE4=Polka Medley live (2007)
TTITLE5=Manches geht niemals vorüber (2007)
TTITLE6=Ich bin an deiner Seite (2007)
TTITLE7=Wir spielen alle in der selben Band (2007)
TTITLE8=Lust auf mehr (2007)
TTITLE9=Die Party is no lang net aus (2007)
TTITLE10=Setz di nieder (2007)
TTITLE11=Sierra Madre (2007)
TTITLE12=Der Fan-Song (2007)
TTITLE13=Morgenfrüh bin ich bei dir (2007)
TTITLE14=I geh fisch'n (2007)
TTITLE15=Alte Spinner san die größt'n Spinner (2007)
EXTD=
EXTT0=
EXTT1=
EXTT2=
EXTT3=
EXTT4=
EXTT5=
EXTT6=
EXTT7=
EXTT8=
EXTT9=
EXTT10=
EXTT11=
EXTT12=
EXTT13=
EXTT14=
EXTT15=
PLAYORDER=
